{
  "accessors": [
    {
      "bufferView": 2,
      "componentType": 5126,
      "count": 20175,
      "max": [
        0.5,
        0.4969465136528015,
        0.19683827459812164
      ],
      "min": [
        -0.4929705560207367,
        -0.4975222945213318,
        -0.19683827459812164
      ],
      "type": "VEC3"
    },
    {
      "bufferView": 2,
      "byteOffset": 242100,
      "componentType": 5126,
      "count": 20175,
      "max": [
        0.9999968409538269,
        1.0,
        0.9999998211860657
      ],
      "min": [
        -0.9999356269836426,
        -0.9998754858970642,
        -0.9999998211860657
      ],
      "type": "VEC3"
    },
    {
      "bufferView": 1,
      "componentType": 5126,
      "count": 20175,
      "max": [
        0.9998044371604919,
        0.8915554285049438
      ],
      "min": [
        3.788798494497314e-05,
        0.00010135769844055176
      ],
      "type": "VEC2"
    },
    {
      "bufferView": 1,
      "byteOffset": 161400,
      "componentType": 5126,
      "count": 20175,
      "max": [
        0.9998044371604919,
        0.8915554285049438
      ],
      "min": [
        3.788798494497314e-05,
        0.00010135769844055176
      ],
      "type": "VEC2"
    },
    {
      "bufferView": 1,
      "byteOffset": 322800,
      "componentType": 5126,
      "count": 20175,
      "max": [
        0.9998044371604919,
        0.8915554285049438
      ],
      "min": [
        3.788798494497314e-05,
        0.00010135769844055176
      ],
      "type": "VEC2"
    },
    {
      "bufferView": 0,
      "componentType": 5125,
      "count": 115428,
      "type": "SCALAR"
    }
  ],
  "asset": {
    "extras": {
      "author": "Astari28 (https://sketchfab.com/Astari28)",
      "license": "CC-BY-SA-4.0 (http://creativecommons.org/licenses/by-sa/4.0/)",
      "source": "https://sketchfab.com/3d-models/sistem-pencernaan-manusia-825b20444b6c4609946ea69e65141285",
      "title": "Sistem Pencernaan Manusia"
    },
    "generator": "Sketchfab-13.16.0",
    "version": "2.0"
  },
  "bufferViews": [
    {
      "buffer": 0,
      "byteLength": 461712,
      "name": "floatBufferViews",
      "target": 34963
    },
    {
      "buffer": 0,
      "byteLength": 484200,
      "byteOffset": 461712,
      "byteStride": 8,
      "name": "floatBufferViews",
      "target": 34962
    },
    {
      "buffer": 0,
      "byteLength": 484200,
      "byteOffset": 945912,
      "byteStride": 12,
      "name": "floatBufferViews",
      "target": 34962
    }
  ],
  "buffers": [
    {
      "byteLength": 1430112,
      "uri": "scene.bin"
    }
  ],
  "extensionsRequired": [
    "KHR_materials_pbrSpecularGlossiness"
  ],
  "extensionsUsed": [
    "KHR_materials_pbrSpecularGlossiness"
  ],
  "images": [
    {
      "uri": "textures/1451_diffuse.png"
    },
    {
      "uri": "textures/1451_specularGlossiness.png"
    }
  ],
  "materials": [
    {
      "doubleSided": true,
      "extensions": {
        "KHR_materials_pbrSpecularGlossiness": {
          "diffuseFactor": [
            1.0,
            1.0,
            1.0,
            1.0
          ],
          "diffuseTexture": {
            "index": 0
          },
          "glossinessFactor": 1.0,
          "specularFactor": [
            1.0,
            1.0,
            1.0
          ],
          "specularGlossinessTexture": {
            "index": 1,
            "texCoord": 1
          }
        }
      },
      "name": "1451"
    }
  ],
  "meshes": [
    {
      "name": "Object_0",
      "primitives": [
        {
          "attributes": {
            "NORMAL": 1,
            "POSITION": 0,
            "TEXCOORD_0": 2,
            "TEXCOORD_1": 3,
            "TEXCOORD_2": 4
          },
          "indices": 5,
          "material": 0,
          "mode": 4
        }
      ]
    }
  ],
  "nodes": [
    {
      "children": [
        1
      ],
      "matrix": [
        1.0,
        0.0,
        0.0,
        0.0,
        0.0,
        2.220446049250313e-16,
        -1.0,
        0.0,
        0.0,
        1.0,
        2.220446049250313e-16,
        0.0,
        0.0,
        0.0,
        0.0,
        1.0
      ],
      "name": "Sketchfab_model"
    },
    {
      "children": [
        2
      ],
      "name": "root"
    },
    {
      "children": [
        3
      ],
      "matrix": [
        1.0,
        0.0,
        0.0,
        0.0,
        0.0,
        2.220446049250313e-16,
        1.0,
        0.0,
        0.0,
        -1.0,
        2.220446049250313e-16,
        0.0,
        0.0,
        0.0,
        0.0,
        1.0
      ],
      "name": "GLTF_SceneRootNode"
    },
    {
      "children": [
        4
      ],
      "name": "root_1"
    },
    {
      "children": [
        5
      ],
      "matrix": [
        0.5673862909085381,
        2.665315045762993e-08,
        0.1384655819255086,
        0.0,
        -3.1868269196936816e-08,
        0.6306971907615653,
        9.183162494751482e-09,
        0.0,
        -0.07476391760214657,
        -8.238392221867363e-09,
        0.30635787834188827,
        0.0,
        0.014503451064229012,
        0.15547628700733185,
        0.18492545187473297,
        1.0
      ],
      "name": "_0"
    },
    {
      "mesh": 0,
      "name": "Object_5"
    }
  ],
  "samplers": [
    {
      "magFilter": 9729,
      "minFilter": 9987,
      "wrapS": 10497,
      "wrapT": 10497
    }
  ],
  "scene": 0,
  "scenes": [
    {
      "name": "Sketchfab_Scene",
      "nodes": [
        0
      ]
    }
  ],
  "textures": [
    {
      "sampler": 0,
      "source": 0
    },
    {
      "sampler": 0,
      "source": 1
    }
  ]
}
